<svg width="454" height="154" viewBox="0 0 454 154" fill="none" xmlns="http://www.w3.org/2000/svg">
<rect x="1" y="1" width="452" height="152" fill="#30ACF1" stroke="#9EDAFB" stroke-width="2"/>
<path d="M144.273 107.24H151.089V51.752H144.273V45.992H171.345V51.752H164.529V75.56H192.561V51.752H185.745V45.992H212.817V51.752H206.001V107.24H212.817V113H185.745V107.24H192.561V81.8H164.529V107.24H171.345V113H144.273V107.24ZM223.637 51.752H218.741V45.992H245.237V51.752H237.269L248.309 100.616H248.789L262.901 45.992H274.517L288.629 100.616H289.109L300.149 51.752H292.181V45.992H312.533V51.752H307.637L292.469 113H279.605L265.877 62.312H265.397L251.669 113H238.805L223.637 51.752Z" fill="#0E3347"/>
<path d="M144.273 107.24V105.24H142.273V107.24H144.273ZM151.089 107.24V109.24H153.089V107.24H151.089ZM151.089 51.752H153.089V49.752H151.089V51.752ZM144.273 51.752H142.273V53.752H144.273V51.752ZM144.273 45.992V43.992H142.273V45.992H144.273ZM171.345 45.992H173.345V43.992H171.345V45.992ZM171.345 51.752V53.752H173.345V51.752H171.345ZM164.529 51.752V49.752H162.529V51.752H164.529ZM164.529 75.56H162.529V77.56H164.529V75.56ZM192.561 75.56V77.56H194.561V75.56H192.561ZM192.561 51.752H194.561V49.752H192.561V51.752ZM185.745 51.752H183.745V53.752H185.745V51.752ZM185.745 45.992V43.992H183.745V45.992H185.745ZM212.817 45.992H214.817V43.992H212.817V45.992ZM212.817 51.752V53.752H214.817V51.752H212.817ZM206.001 51.752V49.752H204.001V51.752H206.001ZM206.001 107.24H204.001V109.24H206.001V107.24ZM212.817 107.24H214.817V105.24H212.817V107.24ZM212.817 113V115H214.817V113H212.817ZM185.745 113H183.745V115H185.745V113ZM185.745 107.24V105.24H183.745V107.24H185.745ZM192.561 107.24V109.24H194.561V107.24H192.561ZM192.561 81.8H194.561V79.8H192.561V81.8ZM164.529 81.8V79.8H162.529V81.8H164.529ZM164.529 107.24H162.529V109.24H164.529V107.24ZM171.345 107.24H173.345V105.24H171.345V107.24ZM171.345 113V115H173.345V113H171.345ZM144.273 113H142.273V115H144.273V113ZM144.273 109.24H151.089V105.24H144.273V109.24ZM153.089 107.24V51.752H149.089V107.24H153.089ZM151.089 49.752H144.273V53.752H151.089V49.752ZM146.273 51.752V45.992H142.273V51.752H146.273ZM144.273 47.992H171.345V43.992H144.273V47.992ZM169.345 45.992V51.752H173.345V45.992H169.345ZM171.345 49.752H164.529V53.752H171.345V49.752ZM162.529 51.752V75.56H166.529V51.752H162.529ZM164.529 77.56H192.561V73.56H164.529V77.56ZM194.561 75.56V51.752H190.561V75.56H194.561ZM192.561 49.752H185.745V53.752H192.561V49.752ZM187.745 51.752V45.992H183.745V51.752H187.745ZM185.745 47.992H212.817V43.992H185.745V47.992ZM210.817 45.992V51.752H214.817V45.992H210.817ZM212.817 49.752H206.001V53.752H212.817V49.752ZM204.001 51.752V107.24H208.001V51.752H204.001ZM206.001 109.24H212.817V105.24H206.001V109.24ZM210.817 107.24V113H214.817V107.24H210.817ZM212.817 111H185.745V115H212.817V111ZM187.745 113V107.24H183.745V113H187.745ZM185.745 109.24H192.561V105.24H185.745V109.24ZM194.561 107.24V81.8H190.561V107.24H194.561ZM192.561 79.8H164.529V83.8H192.561V79.8ZM162.529 81.8V107.24H166.529V81.8H162.529ZM164.529 109.24H171.345V105.24H164.529V109.24ZM169.345 107.24V113H173.345V107.24H169.345ZM171.345 111H144.273V115H171.345V111ZM146.273 113V107.24H142.273V113H146.273ZM223.637 51.752L225.579 51.2712L225.202 49.752H223.637V51.752ZM218.741 51.752H216.741V53.752H218.741V51.752ZM218.741 45.992V43.992H216.741V45.992H218.741ZM245.237 45.992H247.237V43.992H245.237V45.992ZM245.237 51.752V53.752H247.237V51.752H245.237ZM237.269 51.752V49.752H234.767L235.319 52.1928L237.269 51.752ZM248.309 100.616L246.359 101.057L246.711 102.616H248.309V100.616ZM248.789 100.616V102.616H250.338L250.726 101.116L248.789 100.616ZM262.901 45.992V43.992H261.352L260.965 45.4917L262.901 45.992ZM274.517 45.992L276.454 45.4917L276.066 43.992H274.517V45.992ZM288.629 100.616L286.693 101.116L287.08 102.616H288.629V100.616ZM289.109 100.616V102.616H290.708L291.06 101.057L289.109 100.616ZM300.149 51.752L302.1 52.1928L302.652 49.752H300.149V51.752ZM292.181 51.752H290.181V53.752H292.181V51.752ZM292.181 45.992V43.992H290.181V45.992H292.181ZM312.533 45.992H314.533V43.992H312.533V45.992ZM312.533 51.752V53.752H314.533V51.752H312.533ZM307.637 51.752V49.752H306.072L305.696 51.2712L307.637 51.752ZM292.469 113V115H294.034L294.411 113.481L292.469 113ZM279.605 113L277.675 113.523L278.075 115H279.605V113ZM265.877 62.312L267.808 61.7892L267.408 60.312H265.877V62.312ZM265.397 62.312V60.312H263.867L263.467 61.7892L265.397 62.312ZM251.669 113V115H253.2L253.6 113.523L251.669 113ZM238.805 113L236.864 113.481L237.24 115H238.805V113ZM223.637 49.752H218.741V53.752H223.637V49.752ZM220.741 51.752V45.992H216.741V51.752H220.741ZM218.741 47.992H245.237V43.992H218.741V47.992ZM243.237 45.992V51.752H247.237V45.992H243.237ZM245.237 49.752H237.269V53.752H245.237V49.752ZM235.319 52.1928L246.359 101.057L250.26 100.175L239.22 51.3112L235.319 52.1928ZM248.309 102.616H248.789V98.616H248.309V102.616ZM250.726 101.116L264.838 46.4923L260.965 45.4917L246.853 100.116L250.726 101.116ZM262.901 47.992H274.517V43.992H262.901V47.992ZM272.581 46.4923L286.693 101.116L290.566 100.116L276.454 45.4917L272.581 46.4923ZM288.629 102.616H289.109V98.616H288.629V102.616ZM291.06 101.057L302.1 52.1928L298.199 51.3112L287.159 100.175L291.06 101.057ZM300.149 49.752H292.181V53.752H300.149V49.752ZM294.181 51.752V45.992H290.181V51.752H294.181ZM292.181 47.992H312.533V43.992H292.181V47.992ZM310.533 45.992V51.752H314.533V45.992H310.533ZM312.533 49.752H307.637V53.752H312.533V49.752ZM305.696 51.2712L290.528 112.519L294.411 113.481L309.579 52.2328L305.696 51.2712ZM292.469 111H279.605V115H292.469V111ZM281.536 112.477L267.808 61.7892L263.947 62.8348L277.675 113.523L281.536 112.477ZM265.877 60.312H265.397V64.312H265.877V60.312ZM263.467 61.7892L249.739 112.477L253.6 113.523L267.328 62.8348L263.467 61.7892ZM251.669 111H238.805V115H251.669V111ZM240.747 112.519L225.579 51.2712L221.696 52.2328L236.864 113.481L240.747 112.519Z" fill="#9EDAFB"/>
</svg>
